<svg xmlns="http://www.w3.org/2000/svg" width="61" height="66" viewBox="0 0 61 66">
  <defs>
    <style>
      .cls-1 {
        fill: #ffd981;
        fill-rule: evenodd;
      }
    </style>
  </defs>
  <path id="_3" data-name="3" class="cls-1" d="M1035.33,1155.44a5.729,5.729,0,0,0-.78,4.17h-0.25a3.975,3.975,0,0,0-3.96,2.93,43.25,43.25,0,0,0-.22,4.46h-24.11a27.439,27.439,0,0,1,.21-3.67,3.639,3.639,0,0,1,3.65-2.83h13.26a1.8,1.8,0,0,0-1.99-2.03c-2.02-.02-4.03,0-6.05,0h-4.18c0-2.65.21-3.43,2.81-3.54a2.665,2.665,0,0,0,.61-2.31c0-.74-0.12-1.5,1.07-1.42a0.935,0.935,0,0,0,.53-0.57,0.219,0.219,0,0,0,.03-0.08,0.689,0.689,0,0,0-.03.08c-0.41.78,1.79-14.61,1.97-24.54,0-.19-0.02-0.37-0.04-0.69h-1.15c-1.45.01-2.26-.48-2.46-1.47s0.28-1.7,1.56-2.28c-0.06-1.63.05-1.73,2.32-2.02-0.17-3.94.14-7.99-3.4-11,0.57,0.18,1.14.36,1.82,0.57-0.08-.68-0.14-1.26-0.22-1.98,0.69,0.27,1.26.5,1.89,0.74a6.016,6.016,0,0,1,3.92-3.41c-0.95-1.41-.98-2.31-0.12-3.08a1.87,1.87,0,0,1,1.27-.47,1.913,1.913,0,0,1,1.28.47c0.86,0.77.83,1.67-.13,3.08a5.993,5.993,0,0,1,3.92,3.41c0.63-.24,1.21-0.47,1.9-0.74-0.08.72-.15,1.3-0.23,1.98,0.68-.21,1.25-0.39,1.82-0.57-3.54,3.01-3.23,7.06-3.4,11,2.28,0.29,2.38.39,2.33,2.02,1.27,0.58,1.76,1.29,1.56,2.28s-1.01,1.48-2.46,1.47h-1.16c-0.02.32-.04,0.5-0.04,0.69,0.19,9.93,2.39,25.32,1.98,24.54a0.59,0.59,0,0,1-.04-0.08,0.556,0.556,0,0,0,.04.08,0.909,0.909,0,0,0,.53.57c1.19-.08,1.07.68,1.06,1.42a2.621,2.621,0,0,0,.66,2.35h0.08A2.688,2.688,0,0,1,1035.33,1155.44Zm-4.54,11.56a31.593,31.593,0,0,1,.22-3.81,3.788,3.788,0,0,1,3.79-2.93h13.78a1.864,1.864,0,0,0-2.08-2.1c-2.09-.03-4.18-0.01-6.27-0.01h-4.34c-0.51-2.15.72-3.36,3.74-3.68v-3.83c0-1,.03-2-0.02-2.99a1.138,1.138,0,0,0-.38-0.75c-1.01-.78-2.07-1.5-3.08-2.29a0.955,0.955,0,0,1-.35-0.7c-0.02-4.96-.16-9.92.02-14.86a15.265,15.265,0,0,1,11.61-14.29,15.484,15.484,0,0,1,13.21,2.65c0.07,0.05.16,0.08,0.27,0.14-1.21,1.16-2.34,2.24-3.5,3.34,0.24,0.24.39,0.4,0.54,0.55,2.85,2.81,5.72,5.61,8.55,8.43a1.752,1.752,0,0,1,.43.97,12.436,12.436,0,0,1-.01,1.93,0.945,0.945,0,0,1-.24.58c-1.18,1.14-2.38,2.26-3.64,3.45-0.73-.72-1.53-1.46-2.29-2.25a1.438,1.438,0,0,0-1.13-.46c-1.91.03-3.82-.02-5.73,0.02a4.874,4.874,0,0,1-5.16-4.21,0.535,0.535,0,0,0-.65-0.57,8.36,8.36,0,0,1-.88.01,5.8,5.8,0,0,0,1.94,4.7,6.784,6.784,0,0,0,4.93,1.68c0,0.56.01,1.09,0,1.61a3.083,3.083,0,0,0,1.01,2.38l3.78,3.66a4.74,4.74,0,0,1,.68,6.18,4.52,4.52,0,0,1-.5.71,4.484,4.484,0,0,0-1.03,4.27,7.253,7.253,0,0,0,.8-0.01,2.886,2.886,0,0,1,2.96,2.83c-0.04.95-.01,1.9-0.01,2.84a16.181,16.181,0,0,1,1.95.21,3.868,3.868,0,0,1,3.05,3.62c0.05,0.97.01,1.95,0.01,2.98h-35.98Z" transform="translate(-1006 -1101)"/>
</svg>
